<mxfile host="app.diagrams.net" agent="Mozilla/5.0 (X11; Linux x86_64) AppleWebKit/537.36 (KHTML, like Gecko) Chrome/127.0.0.0 Safari/537.36" version="25.0.3">
  <diagram name="Page-1" id="ZFVRr7OpjtKKJH29cP2N">
    <mxGraphModel dx="2643" dy="2055" grid="1" gridSize="10" guides="1" tooltips="1" connect="1" arrows="1" fold="1" page="1" pageScale="1" pageWidth="850" pageHeight="1100" math="0" shadow="0">
      <root>
        <mxCell id="0" />
        <mxCell id="1" parent="0" />
        <mxCell id="7SUzxIseQcVDFoDJgZ21-4" value="" style="rounded=0;whiteSpace=wrap;html=1;strokeWidth=2;fillColor=#fff5d6;strokeColor=#000000;" parent="1" vertex="1">
          <mxGeometry x="-480" y="98.25" width="400" height="240" as="geometry" />
        </mxCell>
        <mxCell id="7SUzxIseQcVDFoDJgZ21-5" value="&lt;font style=&quot;font-size: 14px;&quot;&gt;&lt;b&gt;&lt;i&gt;Software System&lt;/i&gt;&lt;/b&gt;&lt;/font&gt;" style="text;html=1;align=center;verticalAlign=middle;resizable=0;points=[];autosize=1;strokeColor=none;fillColor=none;" parent="1" vertex="1">
          <mxGeometry x="-480" y="98.25" width="140" height="30" as="geometry" />
        </mxCell>
        <mxCell id="7SUzxIseQcVDFoDJgZ21-7" value="Other Features" style="ellipse;whiteSpace=wrap;html=1;aspect=fixed;dashed=1;dashPattern=8 8;" parent="1" vertex="1">
          <mxGeometry x="-450" y="143.25" width="160" height="160" as="geometry" />
        </mxCell>
        <mxCell id="7SUzxIseQcVDFoDJgZ21-49" value="" style="rounded=0;whiteSpace=wrap;html=1;fillColor=#FFF5D6;strokeWidth=2;" parent="1" vertex="1">
          <mxGeometry x="380" y="-50" width="730" height="802" as="geometry" />
        </mxCell>
        <mxCell id="7SUzxIseQcVDFoDJgZ21-59" value="&lt;font style=&quot;font-size: 14px;&quot;&gt;&lt;b&gt;&lt;i&gt;JetCert&lt;/i&gt;&lt;/b&gt;&lt;/font&gt;" style="text;html=1;align=center;verticalAlign=middle;resizable=0;points=[];autosize=1;strokeColor=none;fillColor=none;" parent="1" vertex="1">
          <mxGeometry x="380" y="-50" width="70" height="30" as="geometry" />
        </mxCell>
        <mxCell id="7SUzxIseQcVDFoDJgZ21-210" value="&lt;font style=&quot;font-size: 14px;&quot;&gt;&lt;b&gt;&lt;i&gt;Sensor&lt;/i&gt;&lt;/b&gt;&lt;/font&gt;" style="text;html=1;align=center;verticalAlign=middle;resizable=0;points=[];autosize=1;strokeColor=none;fillColor=none;" parent="1" vertex="1">
          <mxGeometry x="831.5499999999998" y="-209.5" width="70" height="30" as="geometry" />
        </mxCell>
        <mxCell id="7SUzxIseQcVDFoDJgZ21-226" value="" style="rounded=0;whiteSpace=wrap;html=1;" parent="1" vertex="1">
          <mxGeometry x="434.33" y="170" width="192.52" height="206.75" as="geometry" />
        </mxCell>
        <mxCell id="7SUzxIseQcVDFoDJgZ21-233" value="&lt;font size=&quot;1&quot; color=&quot;#000099&quot; style=&quot;&quot;&gt;&lt;i style=&quot;font-size: 12px;&quot;&gt;Core&lt;/i&gt;&lt;/font&gt;" style="text;html=1;align=center;verticalAlign=middle;resizable=0;points=[];autosize=1;strokeColor=none;fillColor=none;" parent="1" vertex="1">
          <mxGeometry x="577.2099999999998" y="347.5" width="50" height="30" as="geometry" />
        </mxCell>
        <mxCell id="7SUzxIseQcVDFoDJgZ21-266" value="" style="sketch=0;outlineConnect=0;fontColor=#232F3E;gradientColor=none;fillColor=#232F3D;strokeColor=none;dashed=0;verticalLabelPosition=bottom;verticalAlign=top;align=center;html=1;fontSize=12;fontStyle=0;aspect=fixed;pointerEvents=1;shape=mxgraph.aws4.user;" parent="1" vertex="1">
          <mxGeometry x="-390.0000000000001" y="560.75" width="40" height="40" as="geometry" />
        </mxCell>
        <mxCell id="cuHnVKyGFErMfmH1ZCD5-683" style="edgeStyle=orthogonalEdgeStyle;rounded=0;orthogonalLoop=1;jettySize=auto;html=1;" edge="1" parent="1" source="nUs16ag-8KY5u_Jwet5G-1" target="nUs16ag-8KY5u_Jwet5G-22">
          <mxGeometry relative="1" as="geometry" />
        </mxCell>
        <mxCell id="nUs16ag-8KY5u_Jwet5G-1" value="Self-Adaptive Features" style="ellipse;whiteSpace=wrap;html=1;aspect=fixed;" parent="1" vertex="1">
          <mxGeometry x="-270" y="143.25" width="160" height="160" as="geometry" />
        </mxCell>
        <mxCell id="cuHnVKyGFErMfmH1ZCD5-678" style="edgeStyle=orthogonalEdgeStyle;rounded=0;orthogonalLoop=1;jettySize=auto;html=1;entryX=0;entryY=0.5;entryDx=0;entryDy=0;startArrow=none;startFill=0;" edge="1" parent="1" source="nUs16ag-8KY5u_Jwet5G-22" target="48fDKb3yu4CFOlkJPKU8-87">
          <mxGeometry relative="1" as="geometry" />
        </mxCell>
        <mxCell id="nUs16ag-8KY5u_Jwet5G-22" value="" style="rounded=0;whiteSpace=wrap;html=1;fillColor=#FFF5D6;strokeWidth=2;" parent="1" vertex="1">
          <mxGeometry x="22.999999999999993" y="-38.75" width="244" height="525" as="geometry" />
        </mxCell>
        <mxCell id="nUs16ag-8KY5u_Jwet5G-24" value="&lt;font style=&quot;font-size: 14px;&quot;&gt;&lt;b&gt;&lt;i&gt;Modules&lt;/i&gt;&lt;/b&gt;&lt;/font&gt;" style="text;html=1;align=center;verticalAlign=middle;resizable=0;points=[];autosize=1;strokeColor=none;fillColor=none;" parent="1" vertex="1">
          <mxGeometry x="20" y="-38.75" width="80" height="30" as="geometry" />
        </mxCell>
        <mxCell id="nUs16ag-8KY5u_Jwet5G-85" value="" style="edgeStyle=orthogonalEdgeStyle;rounded=0;orthogonalLoop=1;jettySize=auto;html=1;endArrow=classic;endFill=1;startArrow=classic;startFill=1;dashed=1;dashPattern=8 8;" parent="1" source="nUs16ag-8KY5u_Jwet5G-82" target="7SUzxIseQcVDFoDJgZ21-7" edge="1">
          <mxGeometry relative="1" as="geometry" />
        </mxCell>
        <mxCell id="cuHnVKyGFErMfmH1ZCD5-583" value="" style="edgeStyle=orthogonalEdgeStyle;rounded=0;orthogonalLoop=1;jettySize=auto;html=1;startArrow=classic;startFill=1;" edge="1" parent="1" source="nUs16ag-8KY5u_Jwet5G-82" target="7SUzxIseQcVDFoDJgZ21-266">
          <mxGeometry relative="1" as="geometry" />
        </mxCell>
        <mxCell id="nUs16ag-8KY5u_Jwet5G-82" value="" style="rounded=0;whiteSpace=wrap;html=1;fillColor=#FFF5D6;strokeWidth=2;" parent="1" vertex="1">
          <mxGeometry x="-446.25" y="413.25" width="152.5" height="60" as="geometry" />
        </mxCell>
        <mxCell id="nUs16ag-8KY5u_Jwet5G-83" value="&lt;font style=&quot;font-size: 14px;&quot;&gt;&lt;b&gt;&lt;i&gt;Native Runtime&lt;/i&gt;&lt;/b&gt;&lt;/font&gt;" style="text;html=1;align=center;verticalAlign=middle;resizable=0;points=[];autosize=1;strokeColor=none;fillColor=none;" parent="1" vertex="1">
          <mxGeometry x="-436.25" y="428.25" width="130" height="30" as="geometry" />
        </mxCell>
        <mxCell id="nUs16ag-8KY5u_Jwet5G-88" value="" style="rounded=0;whiteSpace=wrap;html=1;" parent="1" vertex="1">
          <mxGeometry x="54.769999999999996" y="63" width="180.46" height="173" as="geometry" />
        </mxCell>
        <mxCell id="nUs16ag-8KY5u_Jwet5G-89" value="&lt;i style=&quot;&quot;&gt;&lt;font style=&quot;font-size: 12px;&quot;&gt;Version 1&lt;/font&gt;&lt;/i&gt;" style="html=1;dropTarget=0;whiteSpace=wrap;fillColor=#EEEEEE;" parent="1" vertex="1">
          <mxGeometry x="99.88" y="83.25" width="90.24" height="46" as="geometry" />
        </mxCell>
        <mxCell id="nUs16ag-8KY5u_Jwet5G-90" value="&lt;i&gt;Version n&lt;/i&gt;" style="html=1;dropTarget=0;whiteSpace=wrap;fillColor=#EEEEEE;" parent="1" vertex="1">
          <mxGeometry x="99.88000000000002" y="157.75" width="90.24" height="46" as="geometry" />
        </mxCell>
        <mxCell id="nUs16ag-8KY5u_Jwet5G-91" value="&lt;font size=&quot;1&quot; color=&quot;#000099&quot; style=&quot;&quot;&gt;&lt;i style=&quot;font-size: 12px;&quot;&gt;Module 1&lt;/i&gt;&lt;/font&gt;" style="text;html=1;align=center;verticalAlign=middle;resizable=0;points=[];autosize=1;strokeColor=none;fillColor=none;" parent="1" vertex="1">
          <mxGeometry x="165.23" y="208" width="70" height="30" as="geometry" />
        </mxCell>
        <mxCell id="nUs16ag-8KY5u_Jwet5G-103" value="..." style="text;html=1;align=center;verticalAlign=middle;resizable=0;points=[];autosize=1;strokeColor=none;fillColor=none;fontSize=20;" parent="1" vertex="1">
          <mxGeometry x="125" y="235.25" width="40" height="40" as="geometry" />
        </mxCell>
        <mxCell id="nUs16ag-8KY5u_Jwet5G-108" value="" style="shape=card;whiteSpace=wrap;html=1;direction=south;" parent="1" vertex="1">
          <mxGeometry x="741.1999999999998" y="-20" width="242" height="200" as="geometry" />
        </mxCell>
        <mxCell id="nUs16ag-8KY5u_Jwet5G-109" value="&lt;font size=&quot;1&quot; color=&quot;#000099&quot; style=&quot;&quot;&gt;&lt;i style=&quot;font-size: 12px;&quot;&gt;MAPE-K Loop&lt;/i&gt;&lt;/font&gt;" style="text;html=1;align=center;verticalAlign=middle;resizable=0;points=[];autosize=1;strokeColor=none;fillColor=none;" parent="1" vertex="1">
          <mxGeometry x="883.1999999999999" y="152" width="100" height="30" as="geometry" />
        </mxCell>
        <mxCell id="nUs16ag-8KY5u_Jwet5G-111" value="&lt;font size=&quot;1&quot; style=&quot;&quot;&gt;&lt;i style=&quot;font-size: 12px;&quot;&gt;Monitor&lt;/i&gt;&lt;/font&gt;" style="html=1;dropTarget=0;whiteSpace=wrap;fillColor=#EEEEEE;" parent="1" vertex="1">
          <mxGeometry x="760.1999999999999" y="58" width="61.55" height="42" as="geometry" />
        </mxCell>
        <mxCell id="nUs16ag-8KY5u_Jwet5G-134" style="edgeStyle=orthogonalEdgeStyle;rounded=0;orthogonalLoop=1;jettySize=auto;html=1;entryX=0.5;entryY=0;entryDx=0;entryDy=0;curved=1;" parent="1" source="nUs16ag-8KY5u_Jwet5G-130" target="nUs16ag-8KY5u_Jwet5G-131" edge="1">
          <mxGeometry relative="1" as="geometry" />
        </mxCell>
        <mxCell id="nUs16ag-8KY5u_Jwet5G-136" style="edgeStyle=orthogonalEdgeStyle;rounded=0;orthogonalLoop=1;jettySize=auto;html=1;entryX=0.5;entryY=0;entryDx=0;entryDy=0;endArrow=none;endFill=0;startArrow=classic;startFill=1;curved=1;" parent="1" source="nUs16ag-8KY5u_Jwet5G-130" target="nUs16ag-8KY5u_Jwet5G-111" edge="1">
          <mxGeometry relative="1" as="geometry" />
        </mxCell>
        <mxCell id="nUs16ag-8KY5u_Jwet5G-130" value="&lt;i&gt;Analyzer&lt;/i&gt;" style="html=1;dropTarget=0;whiteSpace=wrap;fillColor=#EEEEEE;" parent="1" vertex="1">
          <mxGeometry x="832.0599999999998" y="6" width="61.55" height="42" as="geometry" />
        </mxCell>
        <mxCell id="nUs16ag-8KY5u_Jwet5G-131" value="&lt;i&gt;Planner&lt;/i&gt;" style="html=1;dropTarget=0;whiteSpace=wrap;fillColor=#EEEEEE;" parent="1" vertex="1">
          <mxGeometry x="903.1999999999999" y="58" width="61.55" height="42" as="geometry" />
        </mxCell>
        <mxCell id="nUs16ag-8KY5u_Jwet5G-138" style="edgeStyle=orthogonalEdgeStyle;rounded=0;orthogonalLoop=1;jettySize=auto;html=1;entryX=0.5;entryY=1;entryDx=0;entryDy=0;startArrow=classic;startFill=1;endArrow=none;endFill=0;curved=1;" parent="1" source="nUs16ag-8KY5u_Jwet5G-132" target="nUs16ag-8KY5u_Jwet5G-131" edge="1">
          <mxGeometry relative="1" as="geometry" />
        </mxCell>
        <mxCell id="nUs16ag-8KY5u_Jwet5G-140" style="edgeStyle=orthogonalEdgeStyle;rounded=0;orthogonalLoop=1;jettySize=auto;html=1;entryX=0.5;entryY=1;entryDx=0;entryDy=0;curved=1;" parent="1" source="nUs16ag-8KY5u_Jwet5G-132" target="nUs16ag-8KY5u_Jwet5G-111" edge="1">
          <mxGeometry relative="1" as="geometry" />
        </mxCell>
        <mxCell id="cuHnVKyGFErMfmH1ZCD5-687" style="edgeStyle=orthogonalEdgeStyle;rounded=0;orthogonalLoop=1;jettySize=auto;html=1;entryX=1;entryY=0.5;entryDx=0;entryDy=0;exitX=0.5;exitY=1;exitDx=0;exitDy=0;curved=1;" edge="1" parent="1" source="nUs16ag-8KY5u_Jwet5G-132" target="48fDKb3yu4CFOlkJPKU8-87">
          <mxGeometry relative="1" as="geometry" />
        </mxCell>
        <mxCell id="nUs16ag-8KY5u_Jwet5G-132" value="&lt;i&gt;Executor&lt;/i&gt;" style="html=1;dropTarget=0;whiteSpace=wrap;fillColor=#EEEEEE;" parent="1" vertex="1">
          <mxGeometry x="832.0599999999998" y="110" width="61.55" height="42" as="geometry" />
        </mxCell>
        <mxCell id="48fDKb3yu4CFOlkJPKU8-24" value="MAPE-K Rules" style="rounded=0;whiteSpace=wrap;html=1;" parent="1" vertex="1">
          <mxGeometry x="54.77000000000001" y="-1.75" width="180.46" height="47" as="geometry" />
        </mxCell>
        <mxCell id="48fDKb3yu4CFOlkJPKU8-70" value="&lt;i&gt;Adaptive Runtime&lt;/i&gt;" style="rounded=0;whiteSpace=wrap;html=1;" parent="1" vertex="1">
          <mxGeometry x="447.56000000000006" y="36.99999999999994" width="166.06" height="47" as="geometry" />
        </mxCell>
        <mxCell id="cuHnVKyGFErMfmH1ZCD5-595" style="edgeStyle=orthogonalEdgeStyle;rounded=0;orthogonalLoop=1;jettySize=auto;html=1;entryX=0.5;entryY=1;entryDx=0;entryDy=0;startArrow=classic;startFill=1;" edge="1" parent="1" source="48fDKb3yu4CFOlkJPKU8-87" target="48fDKb3yu4CFOlkJPKU8-70">
          <mxGeometry relative="1" as="geometry" />
        </mxCell>
        <mxCell id="cuHnVKyGFErMfmH1ZCD5-670" value="" style="edgeStyle=orthogonalEdgeStyle;rounded=0;orthogonalLoop=1;jettySize=auto;html=1;startArrow=classic;startFill=1;" edge="1" parent="1" source="48fDKb3yu4CFOlkJPKU8-87" target="nEDIb4lxfnoJY1dVXAPu-24">
          <mxGeometry relative="1" as="geometry" />
        </mxCell>
        <mxCell id="48fDKb3yu4CFOlkJPKU8-87" value="&lt;div&gt;&lt;i&gt;Modules&lt;/i&gt;&lt;/div&gt;&lt;div&gt;&lt;i&gt;Management&lt;/i&gt;&lt;/div&gt;" style="html=1;dropTarget=0;whiteSpace=wrap;fillColor=#EEEEEE;" parent="1" vertex="1">
          <mxGeometry x="484.8299999999999" y="200.75" width="90.24" height="46" as="geometry" />
        </mxCell>
        <mxCell id="48fDKb3yu4CFOlkJPKU8-105" value="" style="rounded=0;whiteSpace=wrap;html=1;" parent="1" vertex="1">
          <mxGeometry x="412.2199999999999" y="560.3599999999999" width="244" height="160" as="geometry" />
        </mxCell>
        <mxCell id="48fDKb3yu4CFOlkJPKU8-106" value="&lt;font size=&quot;1&quot; color=&quot;#000099&quot; style=&quot;&quot;&gt;&lt;i style=&quot;font-size: 12px;&quot;&gt;Safe Builder&lt;/i&gt;&lt;/font&gt;" style="text;html=1;align=center;verticalAlign=middle;resizable=0;points=[];autosize=1;strokeColor=none;fillColor=none;" parent="1" vertex="1">
          <mxGeometry x="566.22" y="690.3599999999999" width="90" height="30" as="geometry" />
        </mxCell>
        <mxCell id="48fDKb3yu4CFOlkJPKU8-107" value="&lt;i&gt;LLVM&lt;/i&gt;" style="html=1;dropTarget=0;whiteSpace=wrap;fillColor=#EEEEEE;" parent="1" vertex="1">
          <mxGeometry x="437.91999999999996" y="576.3599999999999" width="90.24" height="46" as="geometry" />
        </mxCell>
        <mxCell id="48fDKb3yu4CFOlkJPKU8-108" value="&lt;i&gt;Coq&lt;/i&gt;" style="html=1;dropTarget=0;whiteSpace=wrap;fillColor=#EEEEEE;" parent="1" vertex="1">
          <mxGeometry x="542.3199999999999" y="576.3599999999999" width="90.24" height="46" as="geometry" />
        </mxCell>
        <mxCell id="48fDKb3yu4CFOlkJPKU8-109" value="&lt;i style=&quot;&quot;&gt;&lt;font style=&quot;font-size: 12px;&quot;&gt;CompCert&lt;/font&gt;&lt;/i&gt;" style="html=1;dropTarget=0;whiteSpace=wrap;fillColor=#EEEEEE;" parent="1" vertex="1">
          <mxGeometry x="489.09999999999997" y="635.3599999999999" width="90.24" height="46" as="geometry" />
        </mxCell>
        <mxCell id="nEDIb4lxfnoJY1dVXAPu-2" value="&lt;font&gt;...&lt;/font&gt;" style="text;html=1;align=center;verticalAlign=middle;resizable=0;points=[];autosize=1;strokeColor=none;fillColor=none;fontSize=12;" parent="1" vertex="1">
          <mxGeometry x="130" y="127.75" width="30" height="30" as="geometry" />
        </mxCell>
        <mxCell id="nEDIb4lxfnoJY1dVXAPu-5" value="" style="rounded=0;whiteSpace=wrap;html=1;" parent="1" vertex="1">
          <mxGeometry x="54.77000000000001" y="286.5" width="180.46" height="172.25" as="geometry" />
        </mxCell>
        <mxCell id="nEDIb4lxfnoJY1dVXAPu-6" value="&lt;i style=&quot;&quot;&gt;&lt;font style=&quot;font-size: 12px;&quot;&gt;Version 1&lt;/font&gt;&lt;/i&gt;" style="html=1;dropTarget=0;whiteSpace=wrap;fillColor=#EEEEEE;" parent="1" vertex="1">
          <mxGeometry x="99.88" y="306.75" width="90.24" height="46" as="geometry" />
        </mxCell>
        <mxCell id="nEDIb4lxfnoJY1dVXAPu-7" value="&lt;i&gt;Version n&lt;/i&gt;" style="html=1;dropTarget=0;whiteSpace=wrap;fillColor=#EEEEEE;" parent="1" vertex="1">
          <mxGeometry x="99.88000000000002" y="381.25" width="90.24" height="46" as="geometry" />
        </mxCell>
        <mxCell id="nEDIb4lxfnoJY1dVXAPu-8" value="&lt;font size=&quot;1&quot; color=&quot;#000099&quot; style=&quot;&quot;&gt;&lt;i style=&quot;font-size: 12px;&quot;&gt;Module n&lt;/i&gt;&lt;/font&gt;" style="text;html=1;align=center;verticalAlign=middle;resizable=0;points=[];autosize=1;strokeColor=none;fillColor=none;" parent="1" vertex="1">
          <mxGeometry x="165.23" y="429" width="70" height="30" as="geometry" />
        </mxCell>
        <mxCell id="nEDIb4lxfnoJY1dVXAPu-9" value="&lt;font&gt;...&lt;/font&gt;" style="text;html=1;align=center;verticalAlign=middle;resizable=0;points=[];autosize=1;strokeColor=none;fillColor=none;fontSize=12;" parent="1" vertex="1">
          <mxGeometry x="130" y="351.25" width="30" height="30" as="geometry" />
        </mxCell>
        <mxCell id="nEDIb4lxfnoJY1dVXAPu-12" value="" style="sketch=0;outlineConnect=0;fontColor=#232F3E;gradientColor=none;strokeColor=#232F3E;fillColor=#ffffff;dashed=0;verticalLabelPosition=bottom;verticalAlign=top;align=center;html=1;fontSize=12;fontStyle=0;aspect=fixed;shape=mxgraph.aws4.resourceIcon;resIcon=mxgraph.aws4.sensor;" parent="1" vertex="1">
          <mxGeometry x="832.8399999999998" y="-179.5" width="60" height="60" as="geometry" />
        </mxCell>
        <mxCell id="nEDIb4lxfnoJY1dVXAPu-17" value="" style="rounded=0;whiteSpace=wrap;html=1;" parent="1" vertex="1">
          <mxGeometry x="833.78" y="560.3599999999999" width="244" height="160" as="geometry" />
        </mxCell>
        <mxCell id="nEDIb4lxfnoJY1dVXAPu-18" value="&lt;font size=&quot;1&quot; color=&quot;#000099&quot; style=&quot;&quot;&gt;&lt;i style=&quot;font-size: 12px;&quot;&gt;Fast Builder&lt;/i&gt;&lt;/font&gt;" style="text;html=1;align=center;verticalAlign=middle;resizable=0;points=[];autosize=1;strokeColor=none;fillColor=none;" parent="1" vertex="1">
          <mxGeometry x="987.78" y="690.3599999999999" width="90" height="30" as="geometry" />
        </mxCell>
        <mxCell id="nEDIb4lxfnoJY1dVXAPu-19" value="&lt;i&gt;Numba&lt;/i&gt;" style="html=1;dropTarget=0;whiteSpace=wrap;fillColor=#EEEEEE;" parent="1" vertex="1">
          <mxGeometry x="859.48" y="576.3599999999999" width="90.24" height="46" as="geometry" />
        </mxCell>
        <mxCell id="nEDIb4lxfnoJY1dVXAPu-20" value="&lt;i&gt;Codon&lt;/i&gt;" style="html=1;dropTarget=0;whiteSpace=wrap;fillColor=#EEEEEE;" parent="1" vertex="1">
          <mxGeometry x="963.8799999999999" y="576.3599999999999" width="90.24" height="46" as="geometry" />
        </mxCell>
        <mxCell id="nEDIb4lxfnoJY1dVXAPu-21" value="&lt;i style=&quot;&quot;&gt;&lt;font style=&quot;font-size: 12px;&quot;&gt;Python&lt;/font&gt;&lt;/i&gt;" style="html=1;dropTarget=0;whiteSpace=wrap;fillColor=#EEEEEE;" parent="1" vertex="1">
          <mxGeometry x="910.6600000000001" y="635.3599999999999" width="90.24" height="46" as="geometry" />
        </mxCell>
        <mxCell id="nEDIb4lxfnoJY1dVXAPu-24" value="&lt;i&gt;Versions Management&lt;/i&gt;" style="html=1;dropTarget=0;whiteSpace=wrap;fillColor=#EEEEEE;" parent="1" vertex="1">
          <mxGeometry x="484.83000000000004" y="294.75" width="90.24" height="46" as="geometry" />
        </mxCell>
        <mxCell id="nEDIb4lxfnoJY1dVXAPu-30" value="" style="rounded=0;whiteSpace=wrap;html=1;fillColor=#FFF5D6;strokeWidth=2;" parent="1" vertex="1">
          <mxGeometry x="-480" y="-169.5" width="750" height="60" as="geometry" />
        </mxCell>
        <mxCell id="nEDIb4lxfnoJY1dVXAPu-31" value="&lt;font style=&quot;font-size: 14px;&quot;&gt;&lt;b&gt;&lt;i&gt;Version Control System (Git)&lt;/i&gt;&lt;/b&gt;&lt;/font&gt;" style="text;html=1;align=center;verticalAlign=middle;resizable=0;points=[];autosize=1;strokeColor=none;fillColor=none;" parent="1" vertex="1">
          <mxGeometry x="-210" y="-154.5" width="210" height="30" as="geometry" />
        </mxCell>
        <mxCell id="nEDIb4lxfnoJY1dVXAPu-48" value="" style="rounded=0;whiteSpace=wrap;html=1;" parent="1" vertex="1">
          <mxGeometry x="656.29" y="263.25" width="418" height="113.75" as="geometry" />
        </mxCell>
        <mxCell id="nEDIb4lxfnoJY1dVXAPu-49" value="&lt;font size=&quot;1&quot; color=&quot;#000099&quot; style=&quot;&quot;&gt;&lt;i style=&quot;font-size: 12px;&quot;&gt;CI/CD&lt;/i&gt;&lt;/font&gt;" style="text;html=1;align=center;verticalAlign=middle;resizable=0;points=[];autosize=1;strokeColor=none;fillColor=none;" parent="1" vertex="1">
          <mxGeometry x="1014.2899999999998" y="347.5" width="60" height="30" as="geometry" />
        </mxCell>
        <mxCell id="cuHnVKyGFErMfmH1ZCD5-619" value="" style="edgeStyle=orthogonalEdgeStyle;rounded=0;orthogonalLoop=1;jettySize=auto;html=1;" edge="1" parent="1" source="nEDIb4lxfnoJY1dVXAPu-50" target="cuHnVKyGFErMfmH1ZCD5-159">
          <mxGeometry relative="1" as="geometry" />
        </mxCell>
        <mxCell id="nEDIb4lxfnoJY1dVXAPu-50" value="Update Producer" style="html=1;dropTarget=0;whiteSpace=wrap;fillColor=#EEEEEE;" parent="1" vertex="1">
          <mxGeometry x="957.29" y="294.25" width="90.24" height="46" as="geometry" />
        </mxCell>
        <mxCell id="nEDIb4lxfnoJY1dVXAPu-53" value="&lt;i&gt;Builder&lt;/i&gt;" style="rounded=0;whiteSpace=wrap;html=1;" parent="1" vertex="1">
          <mxGeometry x="411" y="420" width="668" height="60" as="geometry" />
        </mxCell>
        <mxCell id="cuHnVKyGFErMfmH1ZCD5-159" value="&lt;font style=&quot;font-size: 10px;&quot;&gt;Priority Queue&lt;/font&gt;" style="strokeWidth=1;outlineConnect=0;dashed=0;align=center;html=1;fontSize=8;shape=mxgraph.eip.messageChannel;verticalLabelPosition=bottom;labelBackgroundColor=#ffffff;verticalAlign=top;" vertex="1" parent="1">
          <mxGeometry x="808.79" y="307.75000000000006" width="113" height="20" as="geometry" />
        </mxCell>
        <mxCell id="cuHnVKyGFErMfmH1ZCD5-525" value="" style="edgeStyle=orthogonalEdgeStyle;rounded=0;orthogonalLoop=1;jettySize=auto;html=1;" edge="1" parent="1" source="cuHnVKyGFErMfmH1ZCD5-460" target="nEDIb4lxfnoJY1dVXAPu-24">
          <mxGeometry relative="1" as="geometry" />
        </mxCell>
        <mxCell id="cuHnVKyGFErMfmH1ZCD5-620" value="" style="edgeStyle=orthogonalEdgeStyle;rounded=0;orthogonalLoop=1;jettySize=auto;html=1;endArrow=none;endFill=0;startArrow=classic;startFill=1;" edge="1" parent="1" source="cuHnVKyGFErMfmH1ZCD5-460" target="cuHnVKyGFErMfmH1ZCD5-159">
          <mxGeometry relative="1" as="geometry" />
        </mxCell>
        <mxCell id="cuHnVKyGFErMfmH1ZCD5-460" value="Update Processor" style="html=1;dropTarget=0;whiteSpace=wrap;fillColor=#EEEEEE;" vertex="1" parent="1">
          <mxGeometry x="686.2899999999997" y="294.25" width="90.24" height="46" as="geometry" />
        </mxCell>
        <mxCell id="cuHnVKyGFErMfmH1ZCD5-466" style="edgeStyle=orthogonalEdgeStyle;rounded=0;orthogonalLoop=1;jettySize=auto;html=1;entryX=0;entryY=0.499;entryDx=0;entryDy=0;entryPerimeter=0;" edge="1" parent="1" source="nEDIb4lxfnoJY1dVXAPu-12" target="nUs16ag-8KY5u_Jwet5G-108">
          <mxGeometry relative="1" as="geometry" />
        </mxCell>
        <mxCell id="cuHnVKyGFErMfmH1ZCD5-608" style="edgeStyle=orthogonalEdgeStyle;rounded=0;orthogonalLoop=1;jettySize=auto;html=1;entryX=0.5;entryY=0;entryDx=0;entryDy=0;startArrow=classic;startFill=1;" edge="1" parent="1" source="cuHnVKyGFErMfmH1ZCD5-584" target="48fDKb3yu4CFOlkJPKU8-70">
          <mxGeometry relative="1" as="geometry" />
        </mxCell>
        <mxCell id="cuHnVKyGFErMfmH1ZCD5-584" value="" style="sketch=0;outlineConnect=0;fontColor=#232F3E;gradientColor=none;fillColor=#232F3D;strokeColor=none;dashed=0;verticalLabelPosition=bottom;verticalAlign=top;align=center;html=1;fontSize=12;fontStyle=0;aspect=fixed;pointerEvents=1;shape=mxgraph.aws4.user;" vertex="1" parent="1">
          <mxGeometry x="510.58999999999986" y="-159.5" width="40" height="40" as="geometry" />
        </mxCell>
        <mxCell id="cuHnVKyGFErMfmH1ZCD5-585" value="" style="rounded=0;whiteSpace=wrap;html=1;" vertex="1" parent="1">
          <mxGeometry x="672.28" y="560" width="140" height="160" as="geometry" />
        </mxCell>
        <mxCell id="cuHnVKyGFErMfmH1ZCD5-586" value="&lt;font color=&quot;#000099&quot;&gt;&lt;i&gt;CI/CD Builder&lt;/i&gt;&lt;/font&gt;" style="text;html=1;align=center;verticalAlign=middle;resizable=0;points=[];autosize=1;strokeColor=none;fillColor=none;" vertex="1" parent="1">
          <mxGeometry x="712.28" y="689.9999999999999" width="100" height="30" as="geometry" />
        </mxCell>
        <mxCell id="cuHnVKyGFErMfmH1ZCD5-587" value="Git Agent" style="html=1;dropTarget=0;whiteSpace=wrap;fillColor=#EEEEEE;" vertex="1" parent="1">
          <mxGeometry x="697.98" y="575.9999999999999" width="90.24" height="46" as="geometry" />
        </mxCell>
        <mxCell id="cuHnVKyGFErMfmH1ZCD5-589" value="Git Executor" style="html=1;dropTarget=0;whiteSpace=wrap;fillColor=#EEEEEE;" vertex="1" parent="1">
          <mxGeometry x="697.98" y="634.9999999999999" width="90.24" height="46" as="geometry" />
        </mxCell>
        <mxCell id="cuHnVKyGFErMfmH1ZCD5-662" style="edgeStyle=orthogonalEdgeStyle;rounded=0;orthogonalLoop=1;jettySize=auto;html=1;entryX=0.184;entryY=1;entryDx=0;entryDy=0;entryPerimeter=0;startArrow=classic;startFill=1;" edge="1" parent="1" source="48fDKb3yu4CFOlkJPKU8-105" target="nEDIb4lxfnoJY1dVXAPu-53">
          <mxGeometry relative="1" as="geometry" />
        </mxCell>
        <mxCell id="cuHnVKyGFErMfmH1ZCD5-663" style="edgeStyle=orthogonalEdgeStyle;rounded=0;orthogonalLoop=1;jettySize=auto;html=1;entryX=0.496;entryY=1;entryDx=0;entryDy=0;entryPerimeter=0;startArrow=classic;startFill=1;" edge="1" parent="1" source="cuHnVKyGFErMfmH1ZCD5-585" target="nEDIb4lxfnoJY1dVXAPu-53">
          <mxGeometry relative="1" as="geometry" />
        </mxCell>
        <mxCell id="cuHnVKyGFErMfmH1ZCD5-666" style="edgeStyle=orthogonalEdgeStyle;rounded=0;orthogonalLoop=1;jettySize=auto;html=1;entryX=0.178;entryY=0;entryDx=0;entryDy=0;entryPerimeter=0;startArrow=classic;startFill=1;" edge="1" parent="1" source="nEDIb4lxfnoJY1dVXAPu-24" target="nEDIb4lxfnoJY1dVXAPu-53">
          <mxGeometry relative="1" as="geometry" />
        </mxCell>
        <mxCell id="cuHnVKyGFErMfmH1ZCD5-667" style="edgeStyle=orthogonalEdgeStyle;rounded=0;orthogonalLoop=1;jettySize=auto;html=1;entryX=0.816;entryY=1;entryDx=0;entryDy=0;entryPerimeter=0;startArrow=classic;startFill=1;" edge="1" parent="1" source="nEDIb4lxfnoJY1dVXAPu-17" target="nEDIb4lxfnoJY1dVXAPu-53">
          <mxGeometry relative="1" as="geometry" />
        </mxCell>
        <mxCell id="cuHnVKyGFErMfmH1ZCD5-669" style="edgeStyle=orthogonalEdgeStyle;rounded=0;orthogonalLoop=1;jettySize=auto;html=1;entryX=0.886;entryY=0;entryDx=0;entryDy=0;entryPerimeter=0;startArrow=classic;startFill=1;" edge="1" parent="1" source="nEDIb4lxfnoJY1dVXAPu-50" target="nEDIb4lxfnoJY1dVXAPu-53">
          <mxGeometry relative="1" as="geometry" />
        </mxCell>
        <mxCell id="cuHnVKyGFErMfmH1ZCD5-686" style="edgeStyle=orthogonalEdgeStyle;rounded=0;orthogonalLoop=1;jettySize=auto;html=1;entryX=1.002;entryY=0.931;entryDx=0;entryDy=0;entryPerimeter=0;startArrow=classic;startFill=1;" edge="1" parent="1" source="nEDIb4lxfnoJY1dVXAPu-53" target="nUs16ag-8KY5u_Jwet5G-22">
          <mxGeometry relative="1" as="geometry" />
        </mxCell>
        <mxCell id="cuHnVKyGFErMfmH1ZCD5-689" style="edgeStyle=orthogonalEdgeStyle;rounded=0;orthogonalLoop=1;jettySize=auto;html=1;entryX=0.5;entryY=0;entryDx=0;entryDy=0;exitX=0.5;exitY=1;exitDx=0;exitDy=0;curved=1;" edge="1" parent="1" source="nUs16ag-8KY5u_Jwet5G-132">
          <mxGeometry relative="1" as="geometry">
            <mxPoint x="894" y="131" as="sourcePoint" />
            <mxPoint x="1002" y="294" as="targetPoint" />
          </mxGeometry>
        </mxCell>
        <mxCell id="cuHnVKyGFErMfmH1ZCD5-692" style="edgeStyle=orthogonalEdgeStyle;rounded=0;orthogonalLoop=1;jettySize=auto;html=1;entryX=0.267;entryY=0.992;entryDx=0;entryDy=0;entryPerimeter=0;startArrow=classic;startFill=1;" edge="1" parent="1" source="7SUzxIseQcVDFoDJgZ21-4" target="nEDIb4lxfnoJY1dVXAPu-30">
          <mxGeometry relative="1" as="geometry" />
        </mxCell>
        <mxCell id="cuHnVKyGFErMfmH1ZCD5-695" style="edgeStyle=orthogonalEdgeStyle;rounded=0;orthogonalLoop=1;jettySize=auto;html=1;entryX=0.833;entryY=0.992;entryDx=0;entryDy=0;entryPerimeter=0;startArrow=classic;startFill=1;" edge="1" parent="1" source="nUs16ag-8KY5u_Jwet5G-22" target="nEDIb4lxfnoJY1dVXAPu-30">
          <mxGeometry relative="1" as="geometry" />
        </mxCell>
      </root>
    </mxGraphModel>
  </diagram>
</mxfile>
